<?xml version="1.0" encoding="utf-8"?>
<!-- Generator: Adobe Illustrator 21.0.0, SVG Export Plug-In . SVG Version: 6.00 Build 0)  -->
<svg version="1.1" id="Layer_1" xmlns="http://www.w3.org/2000/svg" xmlns:xlink="http://www.w3.org/1999/xlink" x="0px" y="0px"
	 viewBox="0 0 260.6 260.6" style="enable-background:new 0 0 260.6 260.6;" xml:space="preserve">
<style type="text/css">
	.st0{fill:#3B5998;}
	.st1{fill:#FFFFFF;}
</style>
<g>
	<path class="st0" d="M6,244.6c0-75.3,0-150.7,0-226C9.5,9.2,16.6,6.8,26.1,6.9C96.9,7.1,167.6,7,238.4,7c12.2,0,17.2,5.1,17.2,17.3
		c0,70.9-0.1,141.9,0.1,212.8c0,9.4-2.3,16.3-11.8,19.4c-21.7,0-43.3,0-65,0c0-31.9,0-63.9,0-96.2c2.5-0.1,4.3-0.3,6.1-0.3
		c7.3,0,14.7-0.2,22,0c3.3,0.1,4.7-1,5.1-4.4c1.1-9.9,2.4-19.8,3.9-29.7c0.6-3.8-1-4.6-4.3-4.5c-9,0.1-18,0.1-27,0
		c-1.8,0-3.5-0.2-5.4-0.3c0-9.6-0.3-18.6,0.1-27.5c0.4-8,4.4-12.2,12.5-12.9c6.9-0.7,14-0.7,20.9-0.6c3.7,0.1,5.1-1.1,5-4.8
		c-0.2-6.8,0-13.7,0-20.5c0-3.1,0-6.1,0-9.4c-5.4-0.4-9.7-1-14-1.1c-7.8-0.1-15.7-0.6-23.5,0.1c-20.7,1.9-35.5,15.2-39.6,35.7
		c-1.3,6.3-1.4,12.9-1.6,19.3c-0.3,7.1-0.1,14.2-0.1,21.7c-2.4,0.1-4.2,0.2-6,0.3c-7.5,0-15-0.1-22.5,0.1c-1.3,0-3.7,1.6-3.7,2.5
		c-0.3,11.8-0.2,23.5-0.2,36c11,0,21.4,0,32.4,0c0,32.6,0,64.5,0,96.5c-40.3,0-80.7,0-121,0C12,254.6,8.2,250.4,6,244.6z"/>
	<path class="st1" d="M139,256.6c0-31.9,0-63.9,0-96.5c-11,0-21.4,0-32.4,0c0-12.4-0.1-24.2,0.2-36c0-0.9,2.4-2.5,3.7-2.5
		c7.5-0.2,15-0.1,22.5-0.1c1.8,0,3.6-0.1,6-0.3c0-7.5-0.2-14.6,0.1-21.7c0.2-6.5,0.4-13,1.6-19.3c4.1-20.5,18.9-33.8,39.6-35.7
		c7.8-0.7,15.6-0.3,23.5-0.1c4.3,0.1,8.6,0.6,14,1.1c0,3.2,0,6.3,0,9.4c0,6.8-0.2,13.7,0,20.5c0.1,3.7-1.3,4.8-5,4.8
		c-7-0.1-14-0.1-20.9,0.6c-8.1,0.8-12.2,5-12.5,12.9c-0.4,9-0.1,18-0.1,27.5c1.9,0.1,3.6,0.3,5.4,0.3c9,0,18,0.1,27,0
		c3.3,0,4.9,0.8,4.3,4.5c-1.5,9.9-2.7,19.8-3.9,29.7c-0.4,3.4-1.8,4.5-5.1,4.4c-7.3-0.2-14.7-0.1-22,0c-1.8,0-3.6,0.2-6.1,0.3
		c0,32.3,0,64.2,0,96.2C165.7,256.6,152.3,256.6,139,256.6z"/>
	<path class="st0" d="M244,256.6c9.4-3.2,11.8-10.1,11.8-19.4c-0.2-70.9-0.1-141.9-0.1-212.8c0-12.2-5-17.3-17.2-17.3
		C167.6,7,96.9,7.1,26.1,6.9C16.6,6.8,9.5,9.2,6,18.6c0-4.3,0-8.7,0-13c83.6,0,167.2,0,250.9,0c0,83.7,0,167.3,0,251
		C252.7,256.6,248.3,256.6,244,256.6z"/>
	<path class="st0" d="M6,244.6c2.2,5.8,6,10,12,12c-4,0-8,0-12,0C6,252.6,6,248.6,6,244.6z"/>
</g>
</svg>
