<?xml version="1.0" encoding="utf-8"?>
<!-- Generator: Adobe Illustrator 21.0.0, SVG Export Plug-In . SVG Version: 6.00 Build 0)  -->
<svg version="1.1" id="Layer_1" xmlns="http://www.w3.org/2000/svg" xmlns:xlink="http://www.w3.org/1999/xlink" x="0px" y="0px"
	 viewBox="0 0 50 25.6" style="enable-background:new 0 0 50 25.6;" xml:space="preserve">
<style type="text/css">
	.st0{fill:#488CC1;}
</style>
<g>
	<path class="st0" d="M8.1,14.1c0,2.5,1,3.6,2.7,3.6c1.6,0,2.4-1.1,2.4-2.4h2.6v0.3c0,2.3-1.8,4.4-5.1,4.4c-3.4,0-5.4-2.2-5.4-5.9
		v-1.4c0-3.7,2-5.9,5.4-5.9c3.2,0,5.1,2.1,5.1,4.5v0.3h-2.6c0-1.3-0.9-2.5-2.5-2.5S8,10.3,8,12.8L8.1,14.1L8.1,14.1z"/>
	<path class="st0" d="M23.8,11.1C23.6,9.7,22.6,9,21.2,9c-1.6,0-2.8,1.1-2.8,3.6v1.6c0,2.1,0.8,3.6,2.8,3.6c1.6,0,2.6-1,2.6-2.2
		v-0.7h-2.5v-2h5.1v2.5c0,2.1-1.3,4.6-5.2,4.6c-3.8,0-5.5-2.5-5.5-5.9v-1.6c0-3.5,2.1-5.8,5.5-5.8s5,2.2,5.1,4.4
		C26.3,11.1,23.8,11.1,23.8,11.1z"/>
	<path class="st0" d="M29.3,13.5c-0.7,0-1,0.7-1,1.5h-2c-0.1-2,0.9-3.6,2.8-3.6s2.5,1.8,3.6,1.8c0.8,0,1-0.8,1-1.5h2
		c0,2.1-0.9,3.6-2.7,3.6C31,15.2,30.4,13.5,29.3,13.5z"/>
	<path class="st0" d="M43.8,19.7v-5.4h-5.2v5.4h-2.7V6.9h2.7v5.2h5.2V6.9h2.7v12.8H43.8z"/>
</g>
</svg>
